<svg width="40" height="40" viewBox="0 0 40 40" fill="none" xmlns="http://www.w3.org/2000/svg">

<g id="Crypto">
<g id="USD-coin">
<path id="Coin" d="M39.4055 24.827C36.7367 35.5347 25.8916 42.0733 15.1642 39.4029C4.45639 36.7259 -2.07163 25.8808 0.597141 15.173C3.26591 4.46526 14.1045 -2.07327 24.8058 0.597122C35.5397 3.23479 42.0677 14.1127 39.4055 24.827Z" fill="#2775CA"/>
<g id="USD Coin">
<path d="M8.35651 15.5847C5.93971 22.0015 9.27311 29.2515 15.7731 31.5847C16.0231 31.7515 16.2731 32.0847 16.2731 32.3347V33.5015C16.2731 33.6681 16.2731 33.7515 16.1897 33.8347C16.1065 34.1681 15.7731 34.3347 15.4397 34.1681C10.7731 32.6681 7.18971 29.0847 5.68971 24.4181C3.18971 16.5015 7.52311 8.08466 15.4397 5.58466C15.5231 5.50146 15.6897 5.50146 15.7731 5.50146C16.1065 5.58466 16.2731 5.83466 16.2731 6.16806V7.33466C16.2731 7.75146 16.1065 8.00146 15.7731 8.16806C12.3565 9.41806 9.60651 12.0847 8.35651 15.5847Z" fill="white"/>
<path d="M23.8565 5.91806C23.9397 5.58466 24.2731 5.41806 24.6065 5.58466C29.1897 7.08466 32.8565 10.6681 34.3565 15.4181C36.8565 23.3347 32.5231 31.7515 24.6065 34.2515C24.5231 34.3347 24.3565 34.3347 24.2731 34.3347C23.9397 34.2515 23.7731 34.0015 23.7731 33.6681V32.5015C23.7731 32.0847 23.9397 31.8347 24.2731 31.6681C27.6897 30.4181 30.4397 27.7515 31.6897 24.2515C34.1065 17.8347 30.7731 10.5847 24.2731 8.25146C24.0231 8.08466 23.7731 7.75146 23.7731 7.41806V6.25146C23.7731 6.08466 23.7731 6.00146 23.8565 5.91806Z" fill="white"/>
<path d="M20.273 18.5015C23.773 18.9181 25.523 19.9181 25.523 22.8347C25.523 25.0847 23.8564 26.8347 21.3564 27.2515V29.2515C21.273 29.6681 21.023 29.9181 20.6896 29.9181H19.4396C19.023 29.8347 18.773 29.5847 18.773 29.2515V27.2515C16.023 26.8347 14.6896 25.3347 14.3564 23.2515V23.1681C14.3564 22.8347 14.6064 22.5847 14.9396 22.5847H16.3564C16.6064 22.5847 16.8564 22.7515 16.9396 23.0847C17.1896 24.3347 17.9396 25.2515 20.1064 25.2515C21.6896 25.2515 22.8564 24.3349 22.8564 23.0015C22.8564 21.6681 22.1064 21.1681 19.773 20.7515C16.273 20.3347 14.6064 19.2515 14.6064 16.5015C14.6064 14.4181 16.1896 12.7515 18.6896 12.4181V10.5015C18.773 10.0847 19.023 9.83472 19.3564 9.83472H20.6064C21.023 9.91812 21.273 10.1681 21.273 10.5015V12.5015C23.1896 12.6681 24.6896 14.0847 25.023 15.9181V16.0015C25.023 16.3347 24.773 16.5847 24.4396 16.5847H23.1064C22.8564 16.5847 22.6064 16.4181 22.523 16.1681C22.1064 14.9181 21.273 14.4181 19.773 14.4181C18.1064 14.4181 17.273 15.1679 17.273 16.3347C17.273 17.5015 17.773 18.1681 20.273 18.5015Z" fill="white"/>
</g>
</g>
</g>
</svg>
